<?xml version="1.0" encoding="utf-8"?>
<!-- Generator: Adobe Illustrator 19.0.0, SVG Export Plug-In . SVG Version: 6.00 Build 0)  -->
<svg version="1.1" id="Layer_1" xmlns="http://www.w3.org/2000/svg" xmlns:xlink="http://www.w3.org/1999/xlink" x="0px" y="0px"
	 viewBox="0 0 841.9 595.3" style="enable-background:new 0 0 841.9 595.3;" xml:space="preserve">
<style type="text/css">
	.st0{clip-path:url(#XMLID_92_);}
	.st1{fill:url(#XMLID_93_);}
	.st2{fill:url(#XMLID_94_);}
	.st3{fill:url(#XMLID_95_);}
	.st4{fill:url(#XMLID_96_);}
	.st5{fill:url(#XMLID_98_);}
	.st6{fill:url(#XMLID_100_);}
	.st7{fill:url(#XMLID_101_);}
	.st8{fill:url(#XMLID_102_);}
	.st9{fill:url(#XMLID_103_);}
	.st10{fill:url(#XMLID_104_);}
	.st11{fill:url(#XMLID_105_);}
	.st12{fill:url(#XMLID_106_);}
	.st13{fill:url(#XMLID_107_);}
	.st14{fill:url(#XMLID_108_);}
	.st15{fill:url(#XMLID_109_);}
	.st16{fill:url(#XMLID_110_);}
	.st17{fill:url(#XMLID_111_);}
	.st18{fill:url(#XMLID_112_);}
	.st19{fill:#F2F2F2;}
	.st20{fill:url(#XMLID_113_);}
	.st21{fill:url(#XMLID_114_);}
	.st22{fill:url(#XMLID_115_);}
	.st23{fill:url(#XMLID_116_);}
	.st24{fill:url(#XMLID_117_);}
	.st25{fill:url(#XMLID_118_);}
	.st26{fill:url(#XMLID_119_);}
	.st27{fill:url(#XMLID_120_);}
	.st28{fill:url(#XMLID_121_);}
	.st29{fill:url(#XMLID_122_);}
	.st30{fill:url(#XMLID_123_);}
	.st31{fill:url(#XMLID_124_);}
	.st32{fill:url(#XMLID_125_);}
	.st33{fill:url(#XMLID_126_);}
	.st34{fill:url(#XMLID_127_);}
	.st35{fill:url(#XMLID_128_);}
	.st36{fill:url(#XMLID_129_);}
	.st37{fill:url(#XMLID_130_);}
	.st38{fill:url(#XMLID_131_);}
	.st39{fill:url(#XMLID_132_);}
	.st40{fill:url(#XMLID_133_);}
	.st41{fill:url(#XMLID_134_);}
	.st42{fill:url(#XMLID_135_);}
	.st43{fill:url(#XMLID_136_);}
	.st44{fill:url(#XMLID_137_);}
	.st45{fill:url(#XMLID_138_);}
	.st46{fill:url(#XMLID_139_);}
</style>
<g id="XMLID_55_">
	<defs>
		<rect id="XMLID_30_" x="0" y="0" width="841.9" height="595.3"/>
	</defs>
	<clipPath id="XMLID_92_">
		<use xlink:href="#XMLID_30_"  style="overflow:visible;"/>
	</clipPath>
	<g id="XMLID_29_" class="st0">
		<linearGradient id="XMLID_93_" gradientUnits="userSpaceOnUse" x1="420.9451" y1="1" x2="420.9451" y2="594.9427">
			<stop  offset="0" style="stop-color:#CECFD1"/>
			<stop  offset="0.1641" style="stop-color:#DEDFE0"/>
			<stop  offset="0.3745" style="stop-color:#EDEDED"/>
			<stop  offset="0.551" style="stop-color:#F2F2F2"/>
			<stop  offset="0.7071" style="stop-color:#EEEEEF"/>
			<stop  offset="0.857" style="stop-color:#E3E3E4"/>
			<stop  offset="1" style="stop-color:#D0D1D3"/>
		</linearGradient>
		<rect id="XMLID_1_" x="0" y="0" class="st1" width="841.9" height="595.3"/>
		<g id="XMLID_9_">
			<g id="XMLID_5_">
				<g id="XMLID_49_">
					<linearGradient id="XMLID_94_" gradientUnits="userSpaceOnUse" x1="600.755" y1="-8.9681" x2="54.755" y2="223.0319">
						<stop  offset="0" style="stop-color:#FFFFFF"/>
						<stop  offset="1" style="stop-color:#FFFFFF;stop-opacity:0"/>
					</linearGradient>
					<path id="XMLID_28_" class="st2" d="M-110.5,185.5l0.1-1c132.2,8.8,332.2-2.6,481.2-48.3c70.6-21.6,138.7-52.4,204.7-82.1
						c28.5-12.9,58-26.2,87.3-38.6c82.8-35,192.6-75.1,307.3-73.7l0,1c-114.6-1.3-224.2,38.7-306.9,73.7
						c-29.3,12.4-58.8,25.7-87.3,38.5c-66,29.8-134.1,60.5-204.8,82.1c-65.6,20.1-148,35.2-238.2,43.7
						C49.2,188.8-37.3,190.4-110.5,185.5z"/>
				</g>
				<g id="XMLID_48_">
					<linearGradient id="XMLID_95_" gradientUnits="userSpaceOnUse" x1="601.7321" y1="-6.6686" x2="55.7321" y2="225.3314">
						<stop  offset="0" style="stop-color:#FFFFFF"/>
						<stop  offset="1" style="stop-color:#FFFFFF;stop-opacity:0"/>
					</linearGradient>
					<path id="XMLID_27_" class="st3" d="M-109.3,196.4l0-1c169.6,3.9,358.6-21.2,493.1-65.4c66.3-21.8,130.9-51.1,193.3-79.5
						c29.5-13.4,60-27.2,90.3-40.1c80.3-34.2,187-73.4,299.4-73.1l0,1c-112.2-0.2-218.7,38.9-299,73c-30.3,12.9-60.8,26.7-90.3,40.1
						c-62.5,28.4-127.1,57.7-193.4,79.5c-66.4,21.8-148,39.4-236,50.9C61.6,193.2-27.5,198.2-109.3,196.4z"/>
				</g>
				<g id="XMLID_47_">
					<linearGradient id="XMLID_96_" gradientUnits="userSpaceOnUse" x1="602.7098" y1="-4.3674" x2="56.7099" y2="227.6326">
						<stop  offset="0" style="stop-color:#FFFFFF"/>
						<stop  offset="1" style="stop-color:#FFFFFF;stop-opacity:0"/>
					</linearGradient>
					<path id="XMLID_26_" class="st4" d="M-108.2,207.3l0-1c175.2-2.1,364-32.9,505-82.5c61.7-21.7,122.2-49.4,180.8-76.2
						c30.9-14.1,62.8-28.7,94.5-42.3C750-28,853.5-66.4,963.5-67.2l0,1c-109.9,0.8-213.2,39.1-291,72.4
						c-31.7,13.6-63.6,28.2-94.5,42.3c-58.6,26.8-119.1,54.5-180.9,76.2c-67.8,23.9-148.7,44-233.7,58.2
						C73.2,198-18.1,206.2-108.2,207.3z"/>
				</g>
				<g id="XMLID_46_">
					<linearGradient id="XMLID_98_" gradientUnits="userSpaceOnUse" x1="603.6879" y1="-2.0658" x2="57.6879" y2="229.9342">
						<stop  offset="0" style="stop-color:#FFFFFF"/>
						<stop  offset="1" style="stop-color:#FFFFFF;stop-opacity:0"/>
					</linearGradient>
					<path id="XMLID_25_" class="st5" d="M-107,218.1l0-1c181.7-7.2,365.3-42.6,516.9-99.6c56.5-21.2,112.4-47.1,166.5-72.1
						C609.1,30.3,643,14.6,676.8,0.1c75.4-32.4,175.7-69.9,283.4-71.9l0,1C852.7-68.8,752.4-31.4,677.1,1
						c-33.7,14.5-67.6,30.2-100.4,45.3c-54.1,25-110.1,50.9-166.6,72.1c-71.1,26.7-149,48.8-231.5,65.5
						C85.9,202.8-10.3,214.3-107,218.1z"/>
				</g>
				<g id="XMLID_45_">
					<linearGradient id="XMLID_100_" gradientUnits="userSpaceOnUse" x1="604.6661" y1="0.2366" x2="58.6661" y2="232.2366">
						<stop  offset="0" style="stop-color:#FFFFFF"/>
						<stop  offset="1" style="stop-color:#FFFFFF;stop-opacity:0"/>
					</linearGradient>
					<path id="XMLID_24_" class="st6" d="M-105.8,229l-0.1-1C84,216.1,257,177.9,422.8,111.3C473.4,91,523.9,67.4,572.8,44.5
						C608.2,27.9,644.9,10.8,681.4-5c49.5-21.4,93.4-37.4,134.4-48.7c50-13.8,96.1-21.2,141-22.5l0,1c-82.1,2.4-167,24.3-275.1,71.1
						c-36.5,15.8-73.2,33-108.6,49.6c-48.9,22.9-99.4,46.5-150,66.8C257.2,178.9,84.2,217.1-105.8,229z"/>
				</g>
				<g id="XMLID_44_">
					<linearGradient id="XMLID_101_" gradientUnits="userSpaceOnUse" x1="605.6443" y1="2.5388" x2="59.6444" y2="234.5388">
						<stop  offset="0" style="stop-color:#FFFFFF"/>
						<stop  offset="1" style="stop-color:#FFFFFF;stop-opacity:0"/>
					</linearGradient>
					<path id="XMLID_23_" class="st7" d="M-104.7,239.9l-0.1-1c250.2-20.5,420.4-82.3,540.6-133.8c43.6-18.7,87.6-39.6,130.1-59.8
						c39.2-18.6,79.7-37.9,120.2-55.5c103.1-44.9,188.1-67.4,267.5-70.6l0,1c-79.3,3.2-164.2,25.6-267.1,70.5
						c-40.5,17.7-81,36.9-120.2,55.5c-42.5,20.2-86.5,41.1-130.1,59.8c-50.6,21.7-129.1,53.5-227.1,80.2
						C109.9,213.2,7.3,230.7-104.7,239.9z"/>
				</g>
				<g id="XMLID_43_">
					<linearGradient id="XMLID_102_" gradientUnits="userSpaceOnUse" x1="606.6231" y1="4.8422" x2="60.6231" y2="236.8422">
						<stop  offset="0" style="stop-color:#FFFFFF"/>
						<stop  offset="1" style="stop-color:#FFFFFF;stop-opacity:0"/>
					</linearGradient>
					<path id="XMLID_22_" class="st8" d="M-103.5,250.8l-0.1-1c261.1-25.7,422.1-91.3,552.5-150.9c35.2-16.1,70.8-33.4,105.3-50.1
						c44.5-21.6,90.4-43.9,136.6-64.2c99.3-43.6,181.8-65.9,259.5-70l0.1,1C872.7-80.2,790.4-58,691.2-14.4
						C645,5.8,599.1,28.1,554.6,49.7c-34.5,16.7-70.2,34.1-105.3,50.1C318.8,159.4,157.8,225.1-103.5,250.8z"/>
				</g>
				<g id="XMLID_42_">
					<linearGradient id="XMLID_103_" gradientUnits="userSpaceOnUse" x1="607.6019" y1="7.1458" x2="61.6019" y2="239.1458">
						<stop  offset="0" style="stop-color:#FFFFFF"/>
						<stop  offset="1" style="stop-color:#FFFFFF;stop-opacity:0"/>
					</linearGradient>
					<path id="XMLID_21_" class="st9" d="M-102.4,261.6l-0.1-1c284.9-32,439.8-107.4,564.3-168C486.2,80.8,511,68.5,535,56.5
						c52.1-26,106-52.9,160.4-77C791-62.8,870.9-84.8,946.9-89.9l0.1,1c-75.9,5-155.8,27-251.2,69.3c-54.4,24.1-108.3,51-160.4,77
						c-24,12-48.8,24.4-73.1,36.2C337.7,154.2,182.7,229.6-102.4,261.6z"/>
				</g>
				<g id="XMLID_41_">
					<linearGradient id="XMLID_104_" gradientUnits="userSpaceOnUse" x1="608.5805" y1="9.4489" x2="62.5805" y2="241.4489">
						<stop  offset="0" style="stop-color:#FFFFFF"/>
						<stop  offset="1" style="stop-color:#FFFFFF;stop-opacity:0"/>
					</linearGradient>
					<path id="XMLID_19_" class="st10" d="M-101.2,272.5l-0.1-1c290.1-36.1,439-113.6,558.6-175.9c5.9-3.1,11.8-6.1,17.6-9.2
						c9.5-4.9,19.1-9.9,28.7-14.9C567.2,38.5,633,4.2,700.1-25.7c91.7-40.9,169.1-62.7,243.5-68.7l0.1,1
						c-74.3,6-151.6,27.8-243.2,68.6C633.5,5.1,567.7,39.4,504,72.4c-9.6,5-19.1,10-28.7,14.9c-5.8,3-11.7,6.1-17.6,9.2
						C338,158.8,189.1,236.4-101.2,272.5z"/>
				</g>
				<g id="XMLID_40_">
					<linearGradient id="XMLID_105_" gradientUnits="userSpaceOnUse" x1="610.348" y1="13.6085" x2="64.348" y2="245.6085">
						<stop  offset="0" style="stop-color:#FFFFFF"/>
						<stop  offset="1" style="stop-color:#FFFFFF;stop-opacity:0"/>
					</linearGradient>
					<path id="XMLID_17_" class="st11" d="M-100.1,283.4l-0.1-1C198.9,242,343.2,161.2,459.1,96.3c9.9-5.6,19.3-10.8,28.8-16
						c64-35.3,138.9-76,216.9-111.1c86.6-39,163.7-61.2,235.6-68.1l0.1,1c-71.8,6.8-148.7,29.1-235.3,68
						c-77.9,35-152.8,75.7-216.8,111c-9.4,5.2-18.8,10.5-28.8,16C343.6,162.1,199.2,242.9-100.1,283.4z"/>
				</g>
				<g id="XMLID_39_">
					<linearGradient id="XMLID_106_" gradientUnits="userSpaceOnUse" x1="613.7627" y1="21.6448" x2="67.7627" y2="253.6448">
						<stop  offset="0" style="stop-color:#FFFFFF"/>
						<stop  offset="1" style="stop-color:#FFFFFF;stop-opacity:0"/>
					</linearGradient>
					<path id="XMLID_16_" class="st12" d="M-98.9,294.3l-0.1-1c310.6-45,451.3-129.8,564.3-198c12.3-7.4,24-14.5,35.6-21.3
						c78.3-46,144.5-81,208.5-110c82.7-37.6,157.2-59.6,227.6-67.5l0.1,1c-70.3,7.8-144.7,29.9-227.3,67.4
						c-64,29-130.2,64-208.4,110c-11.7,6.9-23.3,13.9-35.6,21.3C352.7,164.4,211.9,249.3-98.9,294.3z"/>
				</g>
				<g id="XMLID_38_">
					<linearGradient id="XMLID_107_" gradientUnits="userSpaceOnUse" x1="617.1932" y1="29.7184" x2="71.1932" y2="261.7184">
						<stop  offset="0" style="stop-color:#FFFFFF"/>
						<stop  offset="1" style="stop-color:#FFFFFF;stop-opacity:0"/>
					</linearGradient>
					<path id="XMLID_15_" class="st13" d="M-97.7,305.2l-0.2-1C226,254.6,363.7,165.1,474.3,93.3c13.7-8.9,26.7-17.3,39.7-25.5
						c68-42.6,135.4-79.2,200.2-108.9c78.8-36.1,150.6-57.9,219.6-66.8l0.1,1c-68.9,8.9-140.7,30.7-219.3,66.8
						C649.7-10.5,582.4,26.1,514.4,68.6c-13,8.1-25.9,16.5-39.6,25.5C364.1,166,226.4,255.5-97.7,305.2z"/>
				</g>
				<g id="XMLID_37_">
					<linearGradient id="XMLID_108_" gradientUnits="userSpaceOnUse" x1="618.2107" y1="32.113" x2="72.2107" y2="264.113">
						<stop  offset="0" style="stop-color:#FFFFFF"/>
						<stop  offset="1" style="stop-color:#FFFFFF;stop-opacity:0"/>
					</linearGradient>
					<path id="XMLID_14_" class="st14" d="M-96.6,316l-0.2-1c338.6-54.4,473.5-148.8,581.9-224.7c14.4-10.1,28.1-19.7,41.7-28.8
						C588.8,20.3,653.4-16,718.7-46.3c73.6-34.1,144.8-56.4,211.6-66.2l0.1,1c-66.7,9.8-137.8,32.1-211.4,66.1
						C653.8-15.1,589.3,21.1,527.5,62.4c-13.6,9.1-27.3,18.6-41.7,28.8c-53.6,37.5-114.3,80-204.2,120
						C177.6,257.6,53.9,291.9-96.6,316z"/>
				</g>
				<g id="XMLID_36_">
					<linearGradient id="XMLID_109_" gradientUnits="userSpaceOnUse" x1="619.3261" y1="34.7381" x2="73.3261" y2="266.7381">
						<stop  offset="0" style="stop-color:#FFFFFF"/>
						<stop  offset="1" style="stop-color:#FFFFFF;stop-opacity:0"/>
					</linearGradient>
					<path id="XMLID_13_" class="st15" d="M-95.4,326.9l-0.2-1c354.3-59.4,486.7-159.1,593.1-239.2c14.7-11.1,28.5-21.5,42.4-31.4
						c57-40.6,118.7-76.5,183.5-106.8c69.5-32.5,138-54.6,203.7-65.6l0.2,1c-65.6,11-134,33-203.4,65.5
						C659.1-20.3,597.4,15.6,540.5,56.2c-13.9,9.9-27.7,20.3-42.4,31.4c-52.4,39.5-111.8,84.2-202.9,126.8
						C189.7,263.7,62,300.6-95.4,326.9z"/>
				</g>
				<g id="XMLID_35_">
					<linearGradient id="XMLID_110_" gradientUnits="userSpaceOnUse" x1="620.507" y1="37.5173" x2="74.507" y2="269.5173">
						<stop  offset="0" style="stop-color:#FFFFFF"/>
						<stop  offset="1" style="stop-color:#FFFFFF;stop-opacity:0"/>
					</linearGradient>
					<path id="XMLID_12_" class="st16" d="M-94.3,337.8l-0.2-1c370.9-64.4,506.3-174.1,605.2-254.2c14.6-11.8,28.3-22.9,42.2-33.5
						C605.8,9,664.7-26.6,728.1-56.6c65.1-30.8,131-52.7,195.7-65l0.2,1c-64.6,12.3-130.4,34.1-195.4,64.9
						c-63.3,30-122.2,65.5-175,105.6c-13.8,10.5-27.6,21.6-42.1,33.4C460.1,124.9,402,172,309.6,217.3
						C202.6,269.8,70.4,309.2-94.3,337.8z"/>
				</g>
				<g id="XMLID_34_">
					<linearGradient id="XMLID_111_" gradientUnits="userSpaceOnUse" x1="621.7401" y1="40.4191" x2="75.74" y2="272.4191">
						<stop  offset="0" style="stop-color:#FFFFFF"/>
						<stop  offset="1" style="stop-color:#FFFFFF;stop-opacity:0"/>
					</linearGradient>
					<path id="XMLID_11_" class="st17" d="M-93.1,348.7l-0.2-1C295,278,427.8,162.4,524.8,78c14.2-12.4,27.6-24,41.1-35
						c49.2-40,105.3-75.2,166.8-104.7c60.6-29,123.7-50.7,187.7-64.3l0.2,1c-63.9,13.7-127,35.3-187.5,64.2
						C671.8-31.4,615.7,3.7,566.6,43.7c-13.5,11-26.9,22.6-41.1,35c-50.2,43.7-107.1,93.2-200.8,141.2
						C215.9,275.7,79.3,317.8-93.1,348.7z"/>
				</g>
				<g id="XMLID_33_">
					<linearGradient id="XMLID_112_" gradientUnits="userSpaceOnUse" x1="623.019" y1="43.4292" x2="77.019" y2="275.4292">
						<stop  offset="0" style="stop-color:#FFFFFF"/>
						<stop  offset="1" style="stop-color:#FFFFFF;stop-opacity:0"/>
					</linearGradient>
					<path id="XMLID_10_" class="st18" d="M-92,359.6l-0.2-1c406.5-75,536.6-196.8,631.6-285.7C553.1,60.1,566,48,579,36.7
						C668.3-41.1,785.3-99,917.1-130.6l0.2,1C785.7-98.1,668.9-40.3,579.6,37.5c-13,11.3-25.8,23.3-39.5,36.1
						c-49.1,45.9-104.7,98-199.8,148.8C229.8,281.4,88.4,326.3-92,359.6z"/>
				</g>
			</g>
			<rect id="XMLID_7_" x="464.6" y="58.9" class="st19" width="420" height="6.7"/>
			<linearGradient id="XMLID_113_" gradientUnits="userSpaceOnUse" x1="698.5766" y1="52.1027" x2="698.5766" y2="-13.9621">
				<stop  offset="0" style="stop-color:#F2F2F2"/>
				<stop  offset="1" style="stop-color:#CECFD1"/>
			</linearGradient>
			<rect id="XMLID_8_" x="520.1" y="-21.4" class="st20" width="357" height="70.5"/>
			<linearGradient id="XMLID_114_" gradientUnits="userSpaceOnUse" x1="361.7174" y1="-15.0666" x2="411.2468" y2="76.4116">
				<stop  offset="0" style="stop-color:#CECFD1"/>
				<stop  offset="1" style="stop-color:#F2F2F2"/>
			</linearGradient>
			<path id="XMLID_4_" class="st21" d="M841.9-34.2c-98.1,5-191.1,41.8-279.7,82.3c-88.6,40.5-175.9,85.7-270.9,109.6
				c-101.4,25.5-207.7,25.8-312.5,26V-30.9L841.9-34.2z"/>
			<linearGradient id="XMLID_115_" gradientUnits="userSpaceOnUse" x1="161.1225" y1="-76.4829" x2="252.6179" y2="81.0093">
				<stop  offset="0" style="stop-color:#CECFD1"/>
				<stop  offset="1" style="stop-color:#F2F2F2"/>
			</linearGradient>
			<path id="XMLID_6_" class="st22" d="M-55.9,162.4c89.8,4.8,180.7-14.4,260.8-55.1c54.7-27.8,104-65.2,157-96.3
				S473.6-45.4,535-45.2H-43.9L-55.9,162.4z"/>
			<linearGradient id="XMLID_116_" gradientUnits="userSpaceOnUse" x1="177.0174" y1="-68.4005" x2="236.0087" y2="49.8508">
				<stop  offset="0" style="stop-color:#CECFD1"/>
				<stop  offset="1" style="stop-color:#F2F2F2"/>
			</linearGradient>
			<path id="XMLID_3_" class="st23" d="M-35.1,99.7c79.8,3.1,160.6-9.3,231.8-35.6c48.7-18,92.5-42.1,139.5-62.1
				s99.3-36.4,153.9-36.2H-24.5L-35.1,99.7z"/>
			<linearGradient id="XMLID_117_" gradientUnits="userSpaceOnUse" x1="205.1586" y1="-73.7045" x2="216.1844" y2="25.2105">
				<stop  offset="0" style="stop-color:#CECFD1"/>
				<stop  offset="1" style="stop-color:#F2F2F2"/>
			</linearGradient>
			<path id="XMLID_2_" class="st24" d="M-35.1,58.6c75.9,2.2,152.8-6.4,220.6-24.7c46.3-12.4,88-29.2,132.7-43.1
				s94.5-25.2,146.4-25.1H-25L-35.1,58.6z"/>
		</g>
		<g id="XMLID_31_">
			<g id="XMLID_57_">
				<g id="XMLID_90_">
					
						<linearGradient id="XMLID_118_" gradientUnits="userSpaceOnUse" x1="600.755" y1="-8.9681" x2="54.755" y2="223.0319" gradientTransform="matrix(-1 0 0 -1 859.5773 595.28)">
						<stop  offset="0" style="stop-color:#FFFFFF"/>
						<stop  offset="1" style="stop-color:#FFFFFF;stop-opacity:0"/>
					</linearGradient>
					<path id="XMLID_91_" class="st25" d="M970.1,409.8l-0.1,1c-132.2-8.8-332.2,2.6-481.2,48.3c-70.6,21.6-138.7,52.4-204.7,82.1
						c-28.5,12.9-58,26.2-87.3,38.6c-82.8,35-192.6,75.1-307.3,73.7l0-1c114.6,1.3,224.2-38.7,306.9-73.7
						c29.3-12.4,58.8-25.7,87.3-38.5c66-29.8,134.1-60.5,204.8-82.1c65.6-20.1,148-35.2,238.2-43.7
						C810.4,406.5,896.8,404.9,970.1,409.8z"/>
				</g>
				<g id="XMLID_88_">
					
						<linearGradient id="XMLID_119_" gradientUnits="userSpaceOnUse" x1="601.7321" y1="-6.6686" x2="55.7321" y2="225.3314" gradientTransform="matrix(-1 0 0 -1 859.5773 595.28)">
						<stop  offset="0" style="stop-color:#FFFFFF"/>
						<stop  offset="1" style="stop-color:#FFFFFF;stop-opacity:0"/>
					</linearGradient>
					<path id="XMLID_89_" class="st26" d="M968.9,398.9l0,1c-169.6-3.9-358.6,21.2-493.1,65.4c-66.3,21.8-130.9,51.1-193.3,79.5
						c-29.5,13.4-60,27.2-90.3,40.1C111.8,619,5.2,658.2-107.2,658l0-1c112.2,0.2,218.7-38.9,299-73c30.3-12.9,60.8-26.7,90.3-40.1
						c62.5-28.4,127.1-57.7,193.4-79.5c66.4-21.8,148-39.4,236-50.9C798,402,887,397,968.9,398.9z"/>
				</g>
				<g id="XMLID_86_">
					
						<linearGradient id="XMLID_120_" gradientUnits="userSpaceOnUse" x1="602.7098" y1="-4.3674" x2="56.7099" y2="227.6326" gradientTransform="matrix(-1 0 0 -1 859.5773 595.28)">
						<stop  offset="0" style="stop-color:#FFFFFF"/>
						<stop  offset="1" style="stop-color:#FFFFFF;stop-opacity:0"/>
					</linearGradient>
					<path id="XMLID_87_" class="st27" d="M967.8,388l0,1c-175.2,2.1-364,32.9-505,82.5c-61.7,21.7-122.2,49.4-180.8,76.2
						c-30.9,14.1-62.8,28.7-94.5,42.3c-77.9,33.3-181.4,71.6-291.4,72.5l0-1c109.9-0.8,213.2-39.1,291-72.4
						c31.7-13.6,63.6-28.2,94.5-42.3c58.6-26.8,119.1-54.5,180.9-76.2c67.8-23.9,148.7-44,233.7-58.2
						C786.3,397.3,877.7,389.1,967.8,388z"/>
				</g>
				<g id="XMLID_84_">
					
						<linearGradient id="XMLID_121_" gradientUnits="userSpaceOnUse" x1="603.6879" y1="-2.0658" x2="57.6879" y2="229.9342" gradientTransform="matrix(-1 0 0 -1 859.5773 595.28)">
						<stop  offset="0" style="stop-color:#FFFFFF"/>
						<stop  offset="1" style="stop-color:#FFFFFF;stop-opacity:0"/>
					</linearGradient>
					<path id="XMLID_85_" class="st28" d="M966.6,377.1l0,1c-181.7,7.2-365.3,42.6-516.9,99.6c-56.5,21.2-112.4,47.1-166.5,72.1
						c-32.8,15.2-66.7,30.8-100.4,45.3C107.4,627.6,7.1,665.1-100.6,667l0-1c107.5-1.9,207.8-39.4,283-71.8
						c33.7-14.5,67.6-30.2,100.4-45.3c54.1-25,110.1-50.9,166.6-72.1c71.1-26.7,149-48.8,231.5-65.5
						C773.7,392.5,869.8,381,966.6,377.1z"/>
				</g>
				<g id="XMLID_82_">
					
						<linearGradient id="XMLID_122_" gradientUnits="userSpaceOnUse" x1="604.6661" y1="0.2366" x2="58.6661" y2="232.2366" gradientTransform="matrix(-1 0 0 -1 859.5773 595.28)">
						<stop  offset="0" style="stop-color:#FFFFFF"/>
						<stop  offset="1" style="stop-color:#FFFFFF;stop-opacity:0"/>
					</linearGradient>
					<path id="XMLID_83_" class="st29" d="M965.4,366.3l0.1,1c-189.9,11.9-362.9,50.1-528.7,116.7c-50.6,20.3-101.1,43.9-149.9,66.8
						c-35.4,16.6-72.1,33.7-108.6,49.6c-49.5,21.4-93.4,37.4-134.4,48.7c-50,13.8-96.1,21.2-141,22.5l0-1
						c82.1-2.4,167-24.3,275.1-71.1c36.5-15.8,73.2-33,108.6-49.6c48.9-22.9,99.4-46.5,150-66.8
						C602.3,416.4,775.4,378.2,965.4,366.3z"/>
				</g>
				<g id="XMLID_80_">
					
						<linearGradient id="XMLID_123_" gradientUnits="userSpaceOnUse" x1="605.6443" y1="2.5388" x2="59.6444" y2="234.5388" gradientTransform="matrix(-1 0 0 -1 859.5773 595.28)">
						<stop  offset="0" style="stop-color:#FFFFFF"/>
						<stop  offset="1" style="stop-color:#FFFFFF;stop-opacity:0"/>
					</linearGradient>
					<path id="XMLID_81_" class="st30" d="M964.3,355.4l0.1,1C714.1,376.9,544,438.6,423.7,490.2c-43.6,18.7-87.6,39.6-130.1,59.8
						c-39.2,18.6-79.7,37.9-120.2,55.5C70.4,650.4-14.6,672.9-94,676.1l0-1c79.3-3.2,164.2-25.6,267.1-70.5
						c40.5-17.7,81-36.9,120.2-55.5c42.5-20.2,86.5-41.1,130.1-59.8c50.6-21.7,129.1-53.5,227.1-80.2
						C749.6,382.1,852.3,364.6,964.3,355.4z"/>
				</g>
				<g id="XMLID_78_">
					
						<linearGradient id="XMLID_124_" gradientUnits="userSpaceOnUse" x1="606.6231" y1="4.8422" x2="60.6231" y2="236.8422" gradientTransform="matrix(-1 0 0 -1 859.5773 595.28)">
						<stop  offset="0" style="stop-color:#FFFFFF"/>
						<stop  offset="1" style="stop-color:#FFFFFF;stop-opacity:0"/>
					</linearGradient>
					<path id="XMLID_79_" class="st31" d="M963.1,344.5l0.1,1c-261.1,25.7-422.1,91.3-552.5,150.9c-35.2,16.1-70.8,33.4-105.3,50.1
						c-44.5,21.6-90.4,43.9-136.6,64.2c-99.3,43.6-181.8,65.9-259.5,70l-0.1-1c77.6-4.1,159.9-26.3,259.1-69.9
						c46.1-20.3,92.1-42.6,136.5-64.1c34.5-16.7,70.2-34.1,105.3-50.1C540.8,435.9,701.8,370.2,963.1,344.5z"/>
				</g>
				<g id="XMLID_76_">
					
						<linearGradient id="XMLID_125_" gradientUnits="userSpaceOnUse" x1="607.6019" y1="7.1458" x2="61.6019" y2="239.1458" gradientTransform="matrix(-1 0 0 -1 859.5773 595.28)">
						<stop  offset="0" style="stop-color:#FFFFFF"/>
						<stop  offset="1" style="stop-color:#FFFFFF;stop-opacity:0"/>
					</linearGradient>
					<path id="XMLID_77_" class="st32" d="M961.9,333.6l0.1,1c-284.9,32-439.8,107.4-564.3,168c-24.3,11.8-49.1,24.2-73.1,36.2
						c-52.1,26-106,52.9-160.4,77c-95.5,42.3-175.5,64.3-251.5,69.3l-0.1-1c75.9-5,155.8-27,251.2-69.3c54.4-24.1,108.3-51,160.4-77
						c24-12,48.8-24.4,73.1-36.2C521.9,441.1,676.9,365.6,961.9,333.6z"/>
				</g>
				<g id="XMLID_74_">
					
						<linearGradient id="XMLID_126_" gradientUnits="userSpaceOnUse" x1="608.5805" y1="9.4489" x2="62.5805" y2="241.4489" gradientTransform="matrix(-1 0 0 -1 859.5773 595.28)">
						<stop  offset="0" style="stop-color:#FFFFFF"/>
						<stop  offset="1" style="stop-color:#FFFFFF;stop-opacity:0"/>
					</linearGradient>
					<path id="XMLID_75_" class="st33" d="M960.8,322.8l0.1,1c-290.1,36.1-439,113.6-558.6,175.9c-5.9,3.1-11.8,6.1-17.6,9.2
						c-9.5,4.9-19.1,9.9-28.7,14.9c-63.6,33.1-129.4,67.3-196.5,97.2C67.8,661.9-9.6,683.7-84.1,689.7l-0.1-1
						c74.3-6,151.6-27.8,243.2-68.6c67-29.9,132.8-64.1,196.5-97.2c9.6-5,19.1-10,28.7-14.9c5.8-3,11.7-6.1,17.6-9.2
						C521.6,436.5,670.5,358.9,960.8,322.8z"/>
				</g>
				<g id="XMLID_72_">
					
						<linearGradient id="XMLID_127_" gradientUnits="userSpaceOnUse" x1="610.348" y1="13.6085" x2="64.348" y2="245.6085" gradientTransform="matrix(-1 0 0 -1 859.5773 595.28)">
						<stop  offset="0" style="stop-color:#FFFFFF"/>
						<stop  offset="1" style="stop-color:#FFFFFF;stop-opacity:0"/>
					</linearGradient>
					<path id="XMLID_73_" class="st34" d="M959.6,311.9l0.1,1C660.7,353.3,516.4,434.1,400.5,499c-9.9,5.6-19.3,10.8-28.8,16
						c-64,35.3-138.9,76-216.9,111.1c-86.6,39-163.7,61.2-235.6,68.1l-0.1-1c71.8-6.8,148.7-29.1,235.3-68
						c77.9-35,152.8-75.7,216.8-111c9.4-5.2,18.8-10.5,28.8-16C516,433.2,660.3,352.4,959.6,311.9z"/>
				</g>
				<g id="XMLID_70_">
					
						<linearGradient id="XMLID_128_" gradientUnits="userSpaceOnUse" x1="613.7627" y1="21.6448" x2="67.7627" y2="253.6448" gradientTransform="matrix(-1 0 0 -1 859.5773 595.28)">
						<stop  offset="0" style="stop-color:#FFFFFF"/>
						<stop  offset="1" style="stop-color:#FFFFFF;stop-opacity:0"/>
					</linearGradient>
					<path id="XMLID_71_" class="st35" d="M958.5,301l0.1,1c-310.6,45-451.3,129.8-564.3,198c-12.3,7.4-24,14.5-35.6,21.3
						c-78.3,46-144.5,81-208.5,110C67.4,668.8-7,690.9-77.4,698.7l-0.1-1c70.3-7.8,144.7-29.9,227.3-67.4c64-29,130.2-64,208.4-110
						c11.7-6.9,23.3-13.9,35.6-21.3C506.9,430.9,647.6,346,958.5,301z"/>
				</g>
				<g id="XMLID_68_">
					
						<linearGradient id="XMLID_129_" gradientUnits="userSpaceOnUse" x1="617.1932" y1="29.7184" x2="71.1932" y2="261.7184" gradientTransform="matrix(-1 0 0 -1 859.5773 595.28)">
						<stop  offset="0" style="stop-color:#FFFFFF"/>
						<stop  offset="1" style="stop-color:#FFFFFF;stop-opacity:0"/>
					</linearGradient>
					<path id="XMLID_69_" class="st36" d="M957.3,290.1l0.2,1C633.5,340.7,495.9,430.2,385.3,502c-13.7,8.9-26.7,17.3-39.7,25.5
						c-68,42.6-135.4,79.2-200.2,108.9C66.7,672.5-5.1,694.4-74.1,703.3l-0.1-1c68.9-8.9,140.7-30.7,219.3-66.8
						c64.8-29.7,132.1-66.3,200.1-108.9c13-8.1,25.9-16.5,39.6-25.5C495.4,429.3,633.2,339.8,957.3,290.1z"/>
				</g>
				<g id="XMLID_66_">
					
						<linearGradient id="XMLID_130_" gradientUnits="userSpaceOnUse" x1="618.2107" y1="32.113" x2="72.2107" y2="264.113" gradientTransform="matrix(-1 0 0 -1 859.5773 595.28)">
						<stop  offset="0" style="stop-color:#FFFFFF"/>
						<stop  offset="1" style="stop-color:#FFFFFF;stop-opacity:0"/>
					</linearGradient>
					<path id="XMLID_67_" class="st37" d="M956.2,279.2l0.2,1c-338.6,54.4-473.5,148.8-581.9,224.7c-14.4,10.1-28.1,19.7-41.7,28.8
						c-61.9,41.3-126.4,77.6-191.8,107.9C67.2,675.6-4,697.9-70.8,707.8l-0.1-1c66.7-9.8,137.8-32.1,211.4-66.1
						c65.3-30.2,129.8-66.5,191.7-107.8c13.6-9.1,27.3-18.6,41.7-28.8c53.6-37.5,114.3-80,204.2-120
						C682,337.7,805.7,303.4,956.2,279.2z"/>
				</g>
				<g id="XMLID_64_">
					
						<linearGradient id="XMLID_131_" gradientUnits="userSpaceOnUse" x1="619.3261" y1="34.7381" x2="73.3261" y2="266.7381" gradientTransform="matrix(-1 0 0 -1 859.5773 595.28)">
						<stop  offset="0" style="stop-color:#FFFFFF"/>
						<stop  offset="1" style="stop-color:#FFFFFF;stop-opacity:0"/>
					</linearGradient>
					<path id="XMLID_65_" class="st38" d="M955,268.4l0.2,1c-354.3,59.4-486.7,159.1-593.1,239.2c-14.7,11.1-28.5,21.5-42.4,31.4
						c-57,40.6-118.7,76.5-183.5,106.8c-69.5,32.5-138,54.6-203.7,65.6l-0.2-1c65.6-11,134-33,203.4-65.5
						c64.7-30.3,126.4-66.2,183.3-106.7c13.9-9.9,27.7-20.3,42.4-31.4c52.4-39.5,111.8-84.2,202.9-126.8
						C669.8,331.5,797.6,294.7,955,268.4z"/>
				</g>
				<g id="XMLID_62_">
					
						<linearGradient id="XMLID_132_" gradientUnits="userSpaceOnUse" x1="620.507" y1="37.5173" x2="74.507" y2="269.5173" gradientTransform="matrix(-1 0 0 -1 859.5773 595.28)">
						<stop  offset="0" style="stop-color:#FFFFFF"/>
						<stop  offset="1" style="stop-color:#FFFFFF;stop-opacity:0"/>
					</linearGradient>
					<path id="XMLID_63_" class="st39" d="M953.8,257.5l0.2,1c-370.9,64.4-506.3,174.1-605.2,254.2c-14.6,11.8-28.3,22.9-42.2,33.5
						c-52.8,40.2-111.8,75.8-175.1,105.7c-65.1,30.8-131,52.7-195.7,65l-0.2-1C0.3,703.6,66,681.8,131.1,651
						c63.3-30,122.2-65.5,175-105.6c13.8-10.5,27.6-21.6,42.1-33.4C399.5,470.3,457.6,423.3,550,378
						C657,325.5,789.1,286.1,953.8,257.5z"/>
				</g>
				<g id="XMLID_60_">
					
						<linearGradient id="XMLID_133_" gradientUnits="userSpaceOnUse" x1="621.7401" y1="40.4191" x2="75.74" y2="272.4191" gradientTransform="matrix(-1 0 0 -1 859.5773 595.28)">
						<stop  offset="0" style="stop-color:#FFFFFF"/>
						<stop  offset="1" style="stop-color:#FFFFFF;stop-opacity:0"/>
					</linearGradient>
					<path id="XMLID_61_" class="st40" d="M952.7,246.6l0.2,1c-388.3,69.7-521.1,185.3-618.1,269.8c-14.2,12.4-27.6,24-41.1,35
						c-49.2,40-105.3,75.2-166.8,104.7C66.3,686,3.1,707.7-60.9,721.4l-0.2-1c63.9-13.7,127-35.3,187.5-64.2
						c61.4-29.4,117.4-64.6,166.6-104.6c13.5-11,26.9-22.6,41.1-35c50.2-43.7,107.1-93.2,200.8-141.2
						C643.6,319.6,780.3,277.5,952.7,246.6z"/>
				</g>
				<g id="XMLID_58_">
					
						<linearGradient id="XMLID_134_" gradientUnits="userSpaceOnUse" x1="623.019" y1="43.4292" x2="77.019" y2="275.4292" gradientTransform="matrix(-1 0 0 -1 859.5773 595.28)">
						<stop  offset="0" style="stop-color:#FFFFFF"/>
						<stop  offset="1" style="stop-color:#FFFFFF;stop-opacity:0"/>
					</linearGradient>
					<path id="XMLID_59_" class="st41" d="M951.5,235.7l0.2,1c-406.5,75-536.6,196.8-631.6,285.7c-13.6,12.8-26.5,24.8-39.5,36.1
						C191.2,636.4,74.3,694.3-57.6,725.9l-0.2-1C73.9,693.3,190.7,635.6,280,557.8c13-11.3,25.8-23.3,39.5-36.1
						c49.1-45.9,104.7-98,199.8-148.8C629.7,313.9,771.1,269,951.5,235.7z"/>
				</g>
			</g>
			<rect id="XMLID_54_" x="-25" y="529.7" class="st19" width="420" height="6.7"/>
			
				<linearGradient id="XMLID_135_" gradientUnits="userSpaceOnUse" x1="698.5766" y1="52.1027" x2="698.5766" y2="-13.9621" gradientTransform="matrix(-1 0 0 -1 859.5773 595.28)">
				<stop  offset="0" style="stop-color:#F2F2F2"/>
				<stop  offset="1" style="stop-color:#CECFD1"/>
			</linearGradient>
			<rect id="XMLID_53_" x="-17.5" y="546.2" class="st42" width="357" height="70.5"/>
			
				<linearGradient id="XMLID_136_" gradientUnits="userSpaceOnUse" x1="361.7174" y1="-15.0666" x2="411.2468" y2="76.4116" gradientTransform="matrix(-1 0 0 -1 859.5773 595.28)">
				<stop  offset="0" style="stop-color:#CECFD1"/>
				<stop  offset="1" style="stop-color:#F2F2F2"/>
			</linearGradient>
			<path id="XMLID_52_" class="st43" d="M17.7,629.5c98.1-5,191.1-41.8,279.7-82.3s175.9-85.7,270.9-109.6
				c101.4-25.5,207.7-25.8,312.5-26v214.5L17.7,629.5z"/>
			
				<linearGradient id="XMLID_137_" gradientUnits="userSpaceOnUse" x1="161.1225" y1="-76.4829" x2="252.6179" y2="81.0093" gradientTransform="matrix(-1 0 0 -1 859.5773 595.28)">
				<stop  offset="0" style="stop-color:#CECFD1"/>
				<stop  offset="1" style="stop-color:#F2F2F2"/>
			</linearGradient>
			<path id="XMLID_51_" class="st44" d="M915.5,432.9c-89.8-4.8-180.7,14.4-260.8,55.1c-54.7,27.8-104,65.2-157,96.3
				c-53,31.1-111.7,56.4-173.1,56.2h578.9L915.5,432.9z"/>
			
				<linearGradient id="XMLID_138_" gradientUnits="userSpaceOnUse" x1="177.0174" y1="-68.4005" x2="236.0087" y2="49.8508" gradientTransform="matrix(-1 0 0 -1 859.5773 595.28)">
				<stop  offset="0" style="stop-color:#CECFD1"/>
				<stop  offset="1" style="stop-color:#F2F2F2"/>
			</linearGradient>
			<path id="XMLID_50_" class="st45" d="M894.7,495.5c-79.8-3.1-160.6,9.3-231.8,35.6c-48.7,18-92.5,42.1-139.5,62.1
				c-47.1,20.1-99.3,36.4-153.9,36.2h514.6L894.7,495.5z"/>
			
				<linearGradient id="XMLID_139_" gradientUnits="userSpaceOnUse" x1="205.1586" y1="-73.7045" x2="216.1844" y2="25.2105" gradientTransform="matrix(-1 0 0 -1 859.5773 595.28)">
				<stop  offset="0" style="stop-color:#CECFD1"/>
				<stop  offset="1" style="stop-color:#F2F2F2"/>
			</linearGradient>
			<path id="XMLID_32_" class="st46" d="M894.7,536.7c-75.9-2.2-152.8,6.4-220.6,24.7c-46.3,12.4-88,29.2-132.7,43.1
				c-44.8,13.9-94.5,25.2-146.4,25.1h489.6L894.7,536.7z"/>
		</g>
	</g>
</g>
</svg>
